<svg width="478.3436767578125px" height="160.4px" xmlns="http://www.w3.org/2000/svg" viewBox="10.828161621093756 -5.200000000000003 478.3436767578125 160.4" style="background: rgb(255, 0, 62);" preserveAspectRatio="xMidYMid"><defs><linearGradient id="editing-gradient-gradient" x1="0" x2="1" y1="0.5" y2="0.5" gradientUnits="objectBoundingBox"><stop offset="0" stop-color="#ffffff"></stop><stop offset="1" stop-color="#ffffff"></stop></linearGradient></defs><g><g transform="translate(80.85997772216797, 98.59500122070312)"><path d="M11.41-19.53L11.41-13.59L11.41-13.59Q11.41-11.28 11.42-9.22L11.42-9.22L11.42-9.22Q11.44-7.16 11.48-5.41L11.48-5.41L11.48-5.41Q11.53-3.66 11.63-2.28L11.63-2.28L11.63-2.28Q11.72-0.91 11.88 0L11.88 0L5 0L5 0Q5.34-1.88 5.41-5.42L5.41-5.42L5.41-5.42Q5.47-8.97 5.47-13.59L5.47-13.59L5.47-35.72L5.47-35.72Q5.47-37.91 5.42-39.80L5.42-39.80L5.42-39.80Q5.38-41.69 5.28-43.19L5.28-43.19L5.28-43.19Q5.19-44.69 5-45.63L5-45.63L5-45.63Q6.63-45.69 8.59-45.78L8.59-45.78L8.59-45.78Q10.28-45.84 12.59-45.89L12.59-45.89L12.59-45.89Q14.91-45.94 17.66-45.94L17.66-45.94L17.66-45.94Q21.31-45.94 24.33-45.20L24.33-45.20L24.33-45.20Q27.34-44.47 29.50-42.92L29.50-42.92L29.50-42.92Q31.66-41.38 32.86-38.94L32.86-38.94L32.86-38.94Q34.06-36.50 34.06-33.13L34.06-33.13L34.06-33.13Q34.06-30.28 33.17-28.09L33.17-28.09L33.17-28.09Q32.28-25.91 30.83-24.33L30.83-24.33L30.83-24.33Q29.38-22.75 27.53-21.72L27.53-21.72L27.53-21.72Q25.69-20.69 23.78-20.16L23.78-20.16L23.78-20.16Q24.72-18.88 26.08-17.02L26.08-17.02L26.08-17.02Q27.44-15.16 28.98-13.08L28.98-13.08L28.98-13.08Q30.53-11 32.11-8.86L32.11-8.86L32.11-8.86Q33.69-6.72 35.06-4.91L35.06-4.91L35.06-4.91Q36.44-3.09 37.47-1.78L37.47-1.78L37.47-1.78Q38.50-0.47 38.91 0L38.91 0L30.94 0L17.75-19.53L11.41-19.53ZM11.41-40.78L11.41-24.38L17.34-24.38L17.34-24.38Q22.66-24.38 25.39-26.56L25.39-26.56L25.39-26.56Q28.13-28.75 28.13-32.66L28.13-32.66L28.13-32.66Q28.13-34.66 27.52-36.20L27.52-36.20L27.52-36.20Q26.91-37.75 25.61-38.80L25.61-38.80L25.61-38.80Q24.31-39.84 22.27-40.39L22.27-40.39L22.27-40.39Q20.22-40.94 17.34-40.94L17.34-40.94L17.34-40.94Q15.69-40.94 14.17-40.89L14.17-40.89L14.17-40.89Q12.66-40.84 11.41-40.78L11.41-40.78ZM69.38-26.41L87.19-26.41L87.19-21.41L69.38-21.41L69.38-5.16L77.63-5.16L77.63-5.16Q82.28-5.16 85.44-5.22L85.44-5.22L85.44-5.22Q88.59-5.28 90.47-5.63L90.47-5.63L90.47 0L62.97 0L62.97 0Q63.31-1.88 63.38-5.42L63.38-5.42L63.38-5.42Q63.44-8.97 63.44-13.59L63.44-13.59L63.44-32.03L63.44-32.03Q63.44-36.66 63.38-40.20L63.38-40.20L63.38-40.20Q63.31-43.75 62.97-45.63L62.97-45.63L89.53-45.63L89.53-40.47L69.38-40.47L69.38-26.41ZM142.66-43.59L141.41-37.50L141.41-37.50Q139.72-38.44 138.30-39.08L138.30-39.08L138.30-39.08Q136.88-39.72 135.53-40.14L135.53-40.14L135.53-40.14Q134.19-40.56 132.84-40.75L132.84-40.75L132.84-40.75Q131.50-40.94 130-40.94L130-40.94L130-40.94Q128.13-40.94 126.58-40.38L126.58-40.38L126.58-40.38Q125.03-39.81 123.91-38.88L123.91-38.88L123.91-38.88Q122.78-37.94 122.17-36.72L122.17-36.72L122.17-36.72Q121.56-35.50 121.56-34.22L121.56-34.22L121.56-34.22Q121.56-32.94 121.92-31.89L121.92-31.89L121.92-31.89Q122.28-30.84 123.38-29.92L123.38-29.92L123.38-29.92Q124.47-29 126.50-28.11L126.50-28.11L126.50-28.11Q128.53-27.22 131.88-26.25L131.88-26.25L131.88-26.25Q134.97-25.34 137.36-24.14L137.36-24.14L137.36-24.14Q139.75-22.94 141.38-21.38L141.38-21.38L141.38-21.38Q143-19.81 143.84-17.81L143.84-17.81L143.84-17.81Q144.69-15.81 144.69-13.28L144.69-13.28L144.69-13.28Q144.69-10.13 143.45-7.55L143.45-7.55L143.45-7.55Q142.22-4.97 140.08-3.11L140.08-3.11L140.08-3.11Q137.94-1.25 135.09-0.23L135.09-0.23L135.09-0.23Q132.25 0.78 129.06 0.78L129.06 0.78L129.06 0.78Q126.81 0.78 124.67 0.47L124.67 0.47L124.67 0.47Q122.53 0.16 120.64-0.41L120.64-0.41L120.64-0.41Q118.75-0.97 117.16-1.73L117.16-1.73L117.16-1.73Q115.56-2.50 114.38-3.44L114.38-3.44L115.78-9.84L115.78-9.84Q118.91-7.13 122.23-5.91L122.23-5.91L122.23-5.91Q125.56-4.69 129.06-4.69L129.06-4.69L129.06-4.69Q130.94-4.69 132.69-5.22L132.69-5.22L132.69-5.22Q134.44-5.75 135.78-6.77L135.78-6.77L135.78-6.77Q137.13-7.78 137.94-9.27L137.94-9.27L137.94-9.27Q138.75-10.75 138.75-12.66L138.75-12.66L138.75-12.66Q138.75-13.88 138.36-14.98L138.36-14.98L138.36-14.98Q137.97-16.09 136.78-17.16L136.78-17.16L136.78-17.16Q135.59-18.22 133.38-19.27L133.38-19.27L133.38-19.27Q131.16-20.31 127.50-21.41L127.50-21.41L127.50-21.41Q123.84-22.50 121.53-23.81L121.53-23.81L121.53-23.81Q119.22-25.13 117.91-26.67L117.91-26.67L117.91-26.67Q116.59-28.22 116.11-29.98L116.11-29.98L116.11-29.98Q115.63-31.75 115.63-33.75L115.63-33.75L115.63-33.75Q115.63-35.75 116.45-37.97L116.45-37.97L116.45-37.97Q117.28-40.19 119.06-42.06L119.06-42.06L119.06-42.06Q120.84-43.94 123.63-45.17L123.63-45.17L123.63-45.17Q126.41-46.41 130.31-46.41L130.31-46.41L130.31-46.41Q132.13-46.41 133.70-46.25L133.70-46.25L133.70-46.25Q135.28-46.09 136.77-45.75L136.77-45.75L136.77-45.75Q138.25-45.41 139.69-44.88L139.69-44.88L139.69-44.88Q141.13-44.34 142.66-43.59L142.66-43.59ZM198.13-45.63L204.53-45.63L204.53-45.63Q204.22-43.75 204.14-40.33L204.14-40.33L204.14-40.33Q204.06-36.91 204.06-32.03L204.06-32.03L204.06-16.09L204.06-16.09Q204.06-12.28 203.06-9.17L203.06-9.17L203.06-9.17Q202.06-6.06 200.02-3.84L200.02-3.84L200.02-3.84Q197.97-1.63 194.84-0.42L194.84-0.42L194.84-0.42Q191.72 0.78 187.50 0.78L187.50 0.78L187.50 0.78Q183.22 0.78 180.08-0.42L180.08-0.42L180.08-0.42Q176.94-1.63 174.88-3.84L174.88-3.84L174.88-3.84Q172.81-6.06 171.80-9.17L171.80-9.17L171.80-9.17Q170.78-12.28 170.78-16.09L170.78-16.09L170.78-32.03L170.78-32.03Q170.78-36.66 170.70-40.20L170.70-40.20L170.70-40.20Q170.63-43.75 170.31-45.63L170.31-45.63L176.72-45.63L176.72-17.50L176.72-17.50Q176.72-14.44 177.25-11.98L177.25-11.98L177.25-11.98Q177.78-9.53 179.03-7.80L179.03-7.80L179.03-7.80Q180.28-6.06 182.34-5.14L182.34-5.14L182.34-5.14Q184.41-4.22 187.50-4.22L187.50-4.22L187.50-4.22Q190.53-4.22 192.56-5.14L192.56-5.14L192.56-5.14Q194.59-6.06 195.83-7.80L195.83-7.80L195.83-7.80Q197.06-9.53 197.59-11.98L197.59-11.98L197.59-11.98Q198.13-14.44 198.13-17.50L198.13-17.50L198.13-45.63ZM234.69-45.63L241.72-45.63L255.16-6.41L268.75-45.63L275.63-45.63L275.63-45.63Q276-34.47 276.38-25.13L276.38-25.13L276.38-25.13Q276.47-22.47 276.59-19.80L276.59-19.80L276.59-19.80Q276.72-17.13 276.84-14.58L276.84-14.58L276.84-14.58Q276.97-12.03 277.09-9.73L277.09-9.73L277.09-9.73Q277.22-7.44 277.33-5.53L277.33-5.53L277.33-5.53Q277.44-3.63 277.56-2.20L277.56-2.20L277.56-2.20Q277.69-0.78 277.81 0L277.81 0L272.03 0L271.16-37.44L258.28 0L252.19 0L239.25-37.34L238.28 0L232.50 0L232.50 0Q232.59-0.78 232.72-2.20L232.72-2.20L232.72-2.20Q232.84-3.63 232.95-5.53L232.95-5.53L232.95-5.53Q233.06-7.44 233.19-9.73L233.19-9.73L233.19-9.73Q233.31-12.03 233.44-14.58L233.44-14.58L233.44-14.58Q233.56-17.13 233.67-19.80L233.67-19.80L233.67-19.80Q233.78-22.47 233.91-25.13L233.91-25.13L233.91-25.13Q234.28-34.47 234.69-45.63L234.69-45.63ZM312.19-26.41L330-26.41L330-21.41L312.19-21.41L312.19-5.16L320.44-5.16L320.44-5.16Q325.09-5.16 328.25-5.22L328.25-5.22L328.25-5.22Q331.41-5.28 333.28-5.63L333.28-5.63L333.28 0L305.78 0L305.78 0Q306.13-1.88 306.19-5.42L306.19-5.42L306.19-5.42Q306.25-8.97 306.25-13.59L306.25-13.59L306.25-32.03L306.25-32.03Q306.25-36.66 306.19-40.20L306.19-40.20L306.19-40.20Q306.13-43.75 305.78-45.63L305.78-45.63L332.34-45.63L332.34-40.47L312.19-40.47L312.19-26.41Z" fill="url(#editing-gradient-gradient)"></path></g></g><style>text {
  font-size: 64px;
  font-family: Arial Black;
  dominant-baseline: central;
  text-anchor: middle;
}</style></svg>