<svg width="544.7656616210937px" height="214.4px" xmlns="http://www.w3.org/2000/svg" viewBox="-22.382830810546864 -32.2 544.7656616210937 214.4" style="background:#e00" preserveAspectRatio="xMidYMid"><defs><filter id="editing-lego" x="-100%" y="-100%" width="300%" height="300%"><feFlood flood-color="#000" result="f1"></feFlood><feFlood flood-color="#ff0" result="f2"></feFlood><feMorphology operator="dilate" radius="3" in="SourceAlpha"></feMorphology><feConvolveMatrix order="5,5" divisor="1" result="cm1" kernelMatrix="0 1 1 1 0  1 0 0 0 1  1 0 0 0 1  1 0 0 0 1  0 1 1 1 0"></feConvolveMatrix><feComposite operator="in" in="f1" in2="cm1" result="c1"></feComposite><feMorphology operator="dilate" radius="3"></feMorphology><feConvolveMatrix order="5,5" divisor="1" result="cm2" kernelMatrix="0 1 1 1 0  1 0 0 0 1  1 0 0 0 1  1 0 0 0 1  0 1 1 1 0"></feConvolveMatrix><feComposite operator="in" in="f2" in2="cm2" result="c2"></feComposite><feMerge><feMergeNode in="c2"></feMergeNode><feMergeNode in="c1"></feMergeNode><feMergeNode in="SourceGraphic"></feMergeNode></feMerge></filter></defs><g filter="url(#editing-lego)"><g transform="translate(54.70998954772949, 115.65000200271606)"><path d="M8.26 0L8.26-79.89L8.26-79.89Q9.09-79.89 12.04-79.95L12.04-79.95L12.04-79.95Q14.99-80.00 18.64-80.00L18.64-80.00L18.64-80.00Q22.30-80.00 25.96-80.06L25.96-80.06L25.96-80.06Q29.62-80.12 31.98-80.12L31.98-80.12L31.98-80.12Q46.61-80.12 53.34-74.40L53.34-74.40L53.34-74.40Q60.06-68.68 60.06-58.29L60.06-58.29L60.06-58.29Q60.06-51.45 56.64-46.14L56.64-46.14L56.64-46.14Q53.22-40.83 45.43-38.47L45.43-38.47L45.43-38.47Q48.73-36.58 51.33-33.28L51.33-33.28L51.33-33.28Q53.93-29.97 56.40-25.19L56.40-25.19L56.40-25.19Q58.88-20.41 61.48-14.10L61.48-14.10L61.48-14.10Q64.07-7.79 67.50 0L67.50 0L52.27 0L52.27 0Q48.26-9.32 45.25-15.93L45.25-15.93L45.25-15.93Q42.24-22.54 39.41-26.67L39.41-26.67L39.41-26.67Q36.58-30.80 33.34-32.69L33.34-32.69L33.34-32.69Q30.09-34.57 25.72-34.57L25.72-34.57L22.30-34.57L22.30 0L8.26 0ZM22.30-70.09L22.30-44.84L31.39-44.84L31.39-44.84Q38.00-44.84 41.60-47.79L41.60-47.79L41.60-47.79Q45.19-50.74 45.19-56.52L45.19-56.52L45.19-56.52Q45.19-59.12 44.49-61.60L44.49-61.60L44.49-61.60Q43.78-64.07 42.07-65.96L42.07-65.96L42.07-65.96Q40.36-67.85 37.47-68.97L37.47-68.97L37.47-68.97Q34.57-70.09 30.21-70.09L30.21-70.09L22.30-70.09ZM69.50-27.97L69.50-27.97Q69.50-35.87 71.69-41.89L71.69-41.89L71.69-41.89Q73.87-47.91 77.70-51.98L77.70-51.98L77.70-51.98Q81.54-56.05 86.73-58.12L86.73-58.12L86.73-58.12Q91.92-60.18 97.94-60.18L97.94-60.18L97.94-60.18Q103.25-60.18 106.97-58.88L106.97-58.88L106.97-58.88Q110.68-57.58 113.04-55.34L113.04-55.34L113.04-55.34Q115.40-53.10 116.53-50.03L116.53-50.03L116.53-50.03Q117.65-46.96 117.65-43.42L117.65-43.42L117.65-43.42Q117.65-39.18 115.29-35.34L115.29-35.34L115.29-35.34Q112.93-31.51 108.50-28.62L108.50-28.62L108.50-28.62Q104.08-25.72 97.82-24.01L97.82-24.01L97.82-24.01Q91.57-22.30 83.78-22.18L83.78-22.18L83.78-22.18Q84.13-19.47 84.90-17.05L84.90-17.05L84.90-17.05Q85.67-14.63 87.14-12.80L87.14-12.80L87.14-12.80Q88.62-10.97 90.98-9.91L90.98-9.91L90.98-9.91Q93.34-8.85 96.88-8.85L96.88-8.85L96.88-8.85Q99.47-8.85 102.42-9.44L102.42-9.44L102.42-9.44Q105.37-10.03 107.85-10.86L107.85-10.86L107.85-10.86Q110.80-11.80 113.63-12.98L113.63-12.98L117.17-4.60L117.17-4.60Q114.11-3.07 110.57-1.89L110.57-1.89L110.57-1.89Q107.50-0.83 103.49 0L103.49 0L103.49 0Q99.47 0.83 94.99 0.83L94.99 0.83L94.99 0.83Q88.15 0.83 83.31-1.24L83.31-1.24L83.31-1.24Q78.47-3.30 75.40-7.08L75.40-7.08L75.40-7.08Q72.33-10.86 70.92-16.17L70.92-16.17L70.92-16.17Q69.50-21.48 69.50-27.97L69.50-27.97ZM96.88-50.98L96.88-50.98Q92.98-50.98 90.45-49.15L90.45-49.15L90.45-49.15Q87.91-47.32 86.38-44.43L86.38-44.43L86.38-44.43Q84.84-41.54 84.19-37.94L84.19-37.94L84.19-37.94Q83.54-34.34 83.43-30.68L83.43-30.68L83.43-30.68Q89.09-30.92 93.04-32.16L93.04-32.16L93.04-32.16Q97.00-33.39 99.47-35.22L99.47-35.22L99.47-35.22Q101.95-37.05 103.07-39.18L103.07-39.18L103.07-39.18Q104.19-41.30 104.19-43.42L104.19-43.42L104.19-43.42Q104.19-46.85 102.19-48.91L102.19-48.91L102.19-48.91Q100.18-50.98 96.88-50.98L96.88-50.98ZM146.20-60.18L146.20-60.18L146.20-60.18Q149.62-60.18 152.93-59.47L152.93-59.47L152.93-59.47Q156.23-58.76 158.83-57.82L158.83-57.82L158.83-57.82Q161.90-56.76 164.49-55.58L164.49-55.58L160.48-46.37L160.48-46.37Q158.12-47.44 155.76-48.26L155.76-48.26L155.76-48.26Q153.75-48.97 151.34-49.62L151.34-49.62L151.34-49.62Q148.92-50.27 146.56-50.27L146.56-50.27L146.56-50.27Q143.84-50.27 141.90-48.97L141.90-48.97L141.90-48.97Q139.95-47.67 139.95-45.08L139.95-45.08L139.95-45.08Q139.95-38.35 149.74-34.57L149.74-34.57L149.74-34.57Q153.40-33.16 156.35-31.57L156.35-31.57L156.35-31.57Q159.30-29.97 161.37-27.85L161.37-27.85L161.37-27.85Q163.43-25.72 164.49-22.95L164.49-22.95L164.49-22.95Q165.55-20.18 165.55-16.40L165.55-16.40L165.55-16.40Q165.55-13.10 164.20-9.91L164.20-9.91L164.20-9.91Q162.84-6.73 160.19-4.25L160.19-4.25L160.19-4.25Q157.53-1.77 153.69-0.30L153.69-0.30L153.69-0.30Q149.86 1.18 145.02 1.18L145.02 1.18L145.02 1.18Q141.13 1.18 137.35 0.30L137.35 0.30L137.35 0.30Q133.58-0.59 130.57-1.65L130.57-1.65L130.57-1.65Q127.56-2.71 125.79-3.66L125.79-3.66L124.02-4.48L128.38-14.40L129.92-13.57L129.92-13.57Q131.45-12.63 133.81-11.56L133.81-11.56L133.81-11.56Q136.17-10.50 138.89-9.62L138.89-9.62L138.89-9.62Q141.60-8.73 143.84-8.73L143.84-8.73L143.84-8.73Q147.97-8.73 149.98-10.38L149.98-10.38L149.98-10.38Q151.98-12.04 151.98-14.75L151.98-14.75L151.98-14.75Q151.98-17.82 149.80-20.36L149.80-20.36L149.80-20.36Q147.62-22.89 143.25-24.54L143.25-24.54L143.25-24.54Q134.17-27.97 130.21-32.33L130.21-32.33L130.21-32.33Q126.26-36.70 126.26-43.66L126.26-43.66L126.26-43.66Q126.26-46.96 127.79-49.97L127.79-49.97L127.79-49.97Q129.33-52.98 131.98-55.28L131.98-55.28L131.98-55.28Q134.64-57.58 138.30-58.88L138.30-58.88L138.30-58.88Q141.95-60.18 146.20-60.18ZM212.40-29.97L212.40-58.76L225.85-58.76L225.85-28.44L225.85-28.44Q225.85-21.36 226.74-16.58L226.74-16.58L226.74-16.58Q227.62-11.80 228.68-8.85L228.68-8.85L228.68-8.85Q229.98-5.31 231.52-3.30L231.52-3.30L221.01 0.94L221.01 0.94Q219.60-0.35 218.42-2.36L218.42-2.36L218.42-2.36Q217.47-4.01 216.47-6.43L216.47-6.43L216.47-6.43Q215.47-8.85 215.11-12.15L215.11-12.15L215.11-12.15Q211.93-5.19 206.15-2.24L206.15-2.24L206.15-2.24Q200.36 0.71 194.11 0.71L194.11 0.71L194.11 0.71Q184.79 0.71 180.84-4.72L180.84-4.72L180.84-4.72Q176.88-10.15 176.88-19.59L176.88-19.59L176.88-58.76L190.33-58.76L190.33-19.82L190.33-19.82Q190.33-14.87 192.10-12.04L192.10-12.04L192.10-12.04Q193.87-9.20 198.12-9.20L198.12-9.20L198.12-9.20Q200.72-9.20 203.26-10.68L203.26-10.68L203.26-10.68Q205.79-12.15 207.86-14.87L207.86-14.87L207.86-14.87Q209.92-17.58 211.16-21.42L211.16-21.42L211.16-21.42Q212.40-25.25 212.40-29.97L212.40-29.97ZM322.97 0L309.63 0L309.63-38.47L309.63-38.47Q309.63-43.42 308.10-46.32L308.10-46.32L308.10-46.32Q306.56-49.21 302.79-49.21L302.79-49.21L302.79-49.21Q300.55-49.21 298.25-47.97L298.25-47.97L298.25-47.97Q295.94-46.73 294.06-44.37L294.06-44.37L294.06-44.37Q292.17-42.01 290.99-38.70L290.99-38.70L290.99-38.70Q289.81-35.40 289.81-31.39L289.81-31.39L289.81 0L276.47 0L276.47-38.47L276.47-38.47Q276.47-43.42 274.94-46.32L274.94-46.32L274.94-46.32Q273.41-49.21 269.63-49.21L269.63-49.21L269.63-49.21Q267.27-49.21 264.97-47.85L264.97-47.85L264.97-47.85Q262.67-46.49 260.84-43.90L260.84-43.90L260.84-43.90Q259.01-41.30 257.89-37.58L257.89-37.58L257.89-37.58Q256.77-33.87 256.77-29.26L256.77-29.26L256.77 0L243.32 0L243.32-29.74L243.32-29.74Q243.32-36.82 242.37-41.60L242.37-41.60L242.37-41.60Q241.43-46.37 240.37-49.32L240.37-49.32L240.37-49.32Q239.07-52.75 237.53-54.87L237.53-54.87L248.15-59.12L248.15-59.12Q249.33-57.82 250.51-55.93L250.51-55.93L250.51-55.93Q251.46-54.28 252.40-51.86L252.40-51.86L252.40-51.86Q253.35-49.44 253.94-46.37L253.94-46.37L253.94-46.37Q256.89-53.45 262.26-56.58L262.26-56.58L262.26-56.58Q267.62-59.71 273.64-59.71L273.64-59.71L273.64-59.71Q279.66-59.71 283.02-56.64L283.02-56.64L283.02-56.64Q286.39-53.57 288.04-48.73L288.04-48.73L288.04-48.73Q291.22-54.63 296.24-57.17L296.24-57.17L296.24-57.17Q301.25-59.71 306.80-59.71L306.80-59.71L306.80-59.71Q311.40-59.71 314.53-58.23L314.53-58.23L314.53-58.23Q317.66-56.76 319.49-54.10L319.49-54.10L319.49-54.10Q321.31-51.45 322.14-47.73L322.14-47.73L322.14-47.73Q322.97-44.01 322.97-39.41L322.97-39.41L322.97 0ZM334.18-27.97L334.18-27.97Q334.18-35.87 336.36-41.89L336.36-41.89L336.36-41.89Q338.54-47.91 342.38-51.98L342.38-51.98L342.38-51.98Q346.21-56.05 351.40-58.12L351.40-58.12L351.40-58.12Q356.60-60.18 362.61-60.18L362.61-60.18L362.61-60.18Q367.92-60.18 371.64-58.88L371.64-58.88L371.64-58.88Q375.36-57.58 377.72-55.34L377.72-55.34L377.72-55.34Q380.08-53.10 381.20-50.03L381.20-50.03L381.20-50.03Q382.32-46.96 382.32-43.42L382.32-43.42L382.32-43.42Q382.32-39.18 379.96-35.34L379.96-35.34L379.96-35.34Q377.60-31.51 373.18-28.62L373.18-28.62L373.18-28.62Q368.75-25.72 362.50-24.01L362.50-24.01L362.50-24.01Q356.24-22.30 348.45-22.18L348.45-22.18L348.45-22.18Q348.81-19.47 349.58-17.05L349.58-17.05L349.58-17.05Q350.34-14.63 351.82-12.80L351.82-12.80L351.82-12.80Q353.29-10.97 355.65-9.91L355.65-9.91L355.65-9.91Q358.01-8.85 361.55-8.85L361.55-8.85L361.55-8.85Q364.15-8.85 367.10-9.44L367.10-9.44L367.10-9.44Q370.05-10.03 372.53-10.86L372.53-10.86L372.53-10.86Q375.48-11.80 378.31-12.98L378.31-12.98L381.85-4.60L381.85-4.60Q378.78-3.07 375.24-1.89L375.24-1.89L375.24-1.89Q372.17-0.83 368.16 0L368.16 0L368.16 0Q364.15 0.83 359.66 0.83L359.66 0.83L359.66 0.83Q352.82 0.83 347.98-1.24L347.98-1.24L347.98-1.24Q343.14-3.30 340.08-7.08L340.08-7.08L340.08-7.08Q337.01-10.86 335.59-16.17L335.59-16.17L335.59-16.17Q334.18-21.48 334.18-27.97L334.18-27.97ZM361.55-50.98L361.55-50.98Q357.66-50.98 355.12-49.15L355.12-49.15L355.12-49.15Q352.58-47.32 351.05-44.43L351.05-44.43L351.05-44.43Q349.52-41.54 348.87-37.94L348.87-37.94L348.87-37.94Q348.22-34.34 348.10-30.68L348.10-30.68L348.10-30.68Q353.76-30.92 357.72-32.16L357.72-32.16L357.72-32.16Q361.67-33.39 364.15-35.22L364.15-35.22L364.15-35.22Q366.63-37.05 367.75-39.18L367.75-39.18L367.75-39.18Q368.87-41.30 368.87-43.42L368.87-43.42L368.87-43.42Q368.87-46.85 366.86-48.91L366.86-48.91L366.86-48.91Q364.86-50.98 361.55-50.98L361.55-50.98Z" fill="#fff"></path></g></g><style>text {
  font-size: 64px;
  font-family: Arial Black;
  dominant-baseline: central;
  text-anchor: middle;
}</style></svg>